<?xml version="1.0" encoding="utf-8"?>
<!-- Generator: Adobe Illustrator 23.1.0, SVG Export Plug-In . SVG Version: 6.00 Build 0)  -->
<svg version="1.1" id="Слой_1" xmlns="http://www.w3.org/2000/svg" xmlns:xlink="http://www.w3.org/1999/xlink" x="0px" y="0px"
	 viewBox="0 0 190 180" style="enable-background:new 0 0 190 180;" xml:space="preserve">
<style type="text/css">
	.st0{fill:#F2920A;}
	.st1{fill:#E00585;}
	.st2{fill:#0457D7;}
	.st3{fill:#018A38;}
</style>
<g>
	<path class="st0" d="M158.5,26.8v56.7h-57.3V26.8H158.5 M160.5,24.8H99.1v60.7h61.3V24.8L160.5,24.8z"/>
	<path class="st0" d="M111.5,51.9v14.5c2.4,1.7,8,5.4,16,6c10.7,0.9,18.4-4,20.7-5.6V51.2l-18.4,9.1
		C123.7,57.5,117.6,54.7,111.5,51.9"/>
	<path class="st0" d="M156.3,61.3c0-1.5-1.1-2.8-2.6-3.1v-5.9l-5.7-3.8c3.2-1.5,6.3-3.1,9.5-4.6c-9.2-4.5-18.5-9-27.7-13.5
		c-9.2,4.5-18.5,9-27.7,13.5c9.2,4.5,18.4,8.9,27.6,13.4c5.5-2.6,10.9-5.3,16.4-7.9l5.8,3.8v5.1c-1.2,0.5-2.1,1.6-2.1,3
		c0,1.1,0.5,2,1.4,2.6l-2,15.9h7.7l-2-15.9C155.7,63.3,156.3,62.4,156.3,61.3 M153,59.8c0.8,0,1.5,0.6,1.5,1.4
		c0,0.8-0.7,1.4-1.5,1.4c-0.8,0-1.5-0.6-1.5-1.4C151.6,60.5,152.2,59.8,153,59.8 M151.2,78l1.7-13.6c0,0,0.1,0,0.1,0
		c0,0,0.1,0,0.1,0l1.7,13.6H151.2z"/>
	<path class="st1" d="M90.2,24.8H29.5v60.7h60.7V24.8z M57.6,73.6c0-0.1,0.1-0.2,0.2-0.2h5.5c0.1,0,0.2,0.1,0.2,0.2v1.1
		c0,0.1-0.1,0.2-0.2,0.2h-5.5c-0.1,0-0.2-0.1-0.2-0.2V73.6z M56.7,71.5c0-0.1,0.1-0.2,0.2-0.2h7.3c0.1,0,0.2,0.1,0.2,0.2v1.2
		c0,0.1-0.1,0.2-0.2,0.2h-7.3c-0.1,0-0.2-0.1-0.2-0.2V71.5z M55.3,69.4c0-0.1,0.1-0.2,0.2-0.2h10c0.1,0,0.2,0.1,0.2,0.2v1.3
		c0,0.1-0.1,0.2-0.2,0.2h-10c-0.1,0-0.2-0.1-0.2-0.2V69.4z M63,59.9c0,0,0-0.4,0.2-0.6c0.2-0.2,0.6-0.1,0.7,0c0.2,0.2,0.3,1-0.1,1.5
		c-0.1,0-0.4,0.1-0.8,0.1L63,59.9z M58.3,59.3c0.2,0.1,0.2,0.5,0.2,0.6l0,0.1l-0.1,1c-0.4,0-0.6-0.1-0.8-0.2
		c-0.2-0.2-0.6-0.8-0.3-1.2c0.1-0.2,0.4-0.3,0.6-0.4c0,0,0.1,0,0.1,0C58.1,59.2,58.2,59.2,58.3,59.3 M59.8,67.8l0.3-5.1
		c0.4,0,0.8,0,1.2,0v5.1H59.8z M50.3,54.5C48.9,52.5,48,50,48,47.2c0-7.2,6.1-13,13.4-12.5c6.2,0.4,11.2,5.5,11.6,11.7
		c0.2,3.1-0.8,6-2.5,8.3c-2.3,3.1-3.6,6.9-3.6,10.8c0,1.3-1,2.3-2.3,2.3H63v-5.1c1.4-0.1,1.8-0.3,2.1-0.7c0.9-1.1,1-3.1-0.1-4.1
		c-0.8-0.6-2.1-0.8-3,0c-0.7,0.6-0.9,1.5-0.8,2.1V61c-0.4,0-0.7,0-1.1,0l0.1-0.9c0-0.3,0.1-1.4-0.8-2.2c-0.5-0.4-1.1-0.6-1.8-0.5
		c-0.8,0.1-1.4,0.5-1.8,1.1c-0.8,1.2-0.3,2.7,0.6,3.5c0.6,0.5,1.2,0.6,1.9,0.7L58,67.8h-1.7c-1.3,0-2.3-1-2.3-2.3
		C54,61.6,52.7,57.8,50.3,54.5"/>
	<path class="st2" d="M99.1,155.2h61.3V94.6H99.1V155.2z M139.4,108.5c3.9-0.6,7.1-0.2,9.2,0.3v4.7h0.3v22.1
		c-4.7-0.4-9.3,0.1-13.5,1.6c-1.6,0.6-3.1,1.3-4.6,2.1v-27.5c0.2-0.1,0.4-0.3,0.6-0.4C134.7,109.3,137.8,108.7,139.4,108.5
		 M111,108.8c1.9-0.4,4.7-0.9,8.2-0.4c4.5,0.6,7.9,2.4,9.8,3.7v27.5c-2.7-1.5-5.6-2.6-8.7-3.3c-3.2-0.7-6.5-0.9-9.8-0.7v-22.1h0.4
		V108.8z M107.2,113.5h1.6v24.1l1-0.1c3.4-0.4,6.8-0.2,10.2,0.6c3.2,0.7,6.2,1.9,8.9,3.5h-21.7V113.5z M152.4,141.6h-21.6v-0.2
		c1.6-1,3.4-1.8,5.2-2.5c4.3-1.5,9-2,13.7-1.4l1,0.1v-24.2h1.7V141.6z"/>
	<g>
		<path class="st3" d="M54,127.1c-0.5-0.4-1.1-0.5-1.6-0.5c-0.6-0.1-1.4-0.2-1.6-1c-0.2-0.6,0.1-1.1,0.5-1.6
			c0.2-0.3,0.5-0.7,0.8-1.3c0.5-1.1,0.8-2.2,0.8-2.7c-0.2,0.1-0.6,0.2-0.9,0.5c-0.3,0.2-0.4,0.4-0.5,0.5c-0.2,0.3-0.4,0.6-0.9,0.7
			c-0.6,0.2-1.1,0.1-1.4,0c0,0,0,0,0,0c0,0.1,0,0.3,0.1,0.4c0.1,1-0.1,1.6-0.3,2.2c-0.2,0.4-0.3,0.8-0.3,1.5c0,0.5,0,1.3,0.5,2
			c0.3,0.4,0.6,0.5,1.1,0.7c0.5,0.2,1.1,0.4,1.8,1c0.7,0.6,1.1,1.4,1.3,2c0.2-0.4,0.5-0.8,1-1c0.5-0.2,0.9-0.1,1.1,0
			c0.1-0.2,0.1-0.6,0-1.1C55.1,128.5,54.6,127.6,54,127.1"/>
		<path class="st3" d="M66.2,101.3c-0.2,1.3-0.8,2.3-1.6,3c-0.8,0.6-1.7,0.8-2.4,1c-0.5,0.1-1,0.2-1.1,0.5c0,0.1,0,0.2,0.1,0.4
			c0.1,0.3,0.3,0.9-0.1,1.4c-0.4,0.6-1.1,0.7-1.6,0.7c-0.4,0-0.6,0.1-0.8,0.2c-0.1,0.2-0.1,0.5,0.1,1.6c0,0.3,0.1,0.6,0.1,0.9
			c0.2,1.5,0.2,2.3,0.2,2.8c0,0.5,0,0.6,0.2,0.9c0.6,1.3,2,2.8,3,2.7c0.4-0.1,0.7-0.5,1-1.3c0.4-0.9,0.9-1.9,2.2-2.2
			c0.8-0.2,1.4,0.1,2,0.5c0.5,0.3,1.1,0.6,2,0.9c3.2,0.9,3.9,0.3,3.9,0.2c0.3-0.3-0.1-1.4-0.4-2.1c-0.4-1.1-0.8-2.1,0-2.8
			c0.6-0.4,1.2-0.2,1.9,0c0.6,0.2,1.3,0.4,2.1,0.3c0.4-0.1,0.8-0.3,1.2-0.5C75.7,105.9,71.4,102.6,66.2,101.3
			C66.2,101.3,66.2,101.3,66.2,101.3"/>
		<g>
			<g>
				<path class="st3" d="M88.2,96.6v56.7H31.5V96.6H88.2 M90.2,94.6H29.5v60.7h60.7V94.6L90.2,94.6z"/>
			</g>
			<path class="st3" d="M78.7,133.9c-0.6-0.6-1.7-0.6-2.3,0c-1.1,1.2-6.9,6.6-15.1,6.6c-0.2-0.1-0.4-0.1-0.6-0.1
				c-0.2,0-0.3,0-0.5,0.1c-0.4,0-0.9-0.1-1.3-0.1c-9.1-1.1-16.8-8.9-17.7-18.1c-0.9-8.6,3.6-17.1,11.3-21c0.8-0.4,1.1-1.4,0.7-2.2
				c-0.4-0.8-1.4-1.1-2.2-0.7c-8.9,4.5-14.1,14.2-13,24.2c1.2,10.8,9.8,19.6,20.6,20.9c0.2,0,0.4,0,0.6,0.1v4.7h-9.5
				c-0.9,0-1.6,0.7-1.6,1.6c0,0.9,0.7,1.6,1.6,1.6h22.1c0.9,0,1.6-0.7,1.6-1.6c0-0.9-0.7-1.6-1.6-1.6h-9.5v-4.6
				c8.9-0.5,15.1-6.3,16.4-7.6C79.4,135.5,79.4,134.5,78.7,133.9"/>
			<path class="st3" d="M58.7,136.1c0.8-0.6,1.6-0.3,2.3-0.1c0.6,0.2,1,0.3,1.4,0.1c0.2-0.1,0.3-0.3,0.5-1.1
				c0.2-0.7,0.4-1.7,1.1-2.9c0.6-1,1.3-2.2,2.8-2.7c0.9-0.3,1.7-0.1,2.3,0c0.6,0.1,0.9,0.2,1.2,0c0.4-0.2,0.5-0.5,0.7-1
				c0.2-0.5,0.4-1.1,1.1-1.4c1.3-0.6,2.9,0.4,5.4,3c2-3,3.2-6.6,3.2-10.5c0-2.9-0.6-5.6-1.8-8c-0.5,0.3-1,0.5-1.6,0.6
				c-1.2,0.2-2.1-0.1-2.8-0.3c-0.2-0.1-0.4-0.1-0.5-0.2c0,0.3,0.2,0.8,0.4,1.2c0.4,1.1,0.9,2.5,0.1,3.5c-0.8,0.9-2.6,1-5.3,0.2
				c-1.1-0.3-1.8-0.7-2.3-1c-0.6-0.3-0.7-0.4-1.1-0.3c-0.6,0.1-0.8,0.6-1.3,1.5c-0.4,0.8-0.9,1.8-2,2c-0.1,0-0.3,0-0.4,0
				c-1.7,0-3.4-2-4-3.5c-0.3-0.6-0.3-0.9-0.3-1.4c0-0.5,0-1.2-0.2-2.7c0-0.3-0.1-0.6-0.1-0.9c-0.2-1.3-0.3-2.1,0.3-2.7
				c0.5-0.5,1.1-0.6,1.6-0.6c0.3,0,0.6-0.1,0.6-0.2c0-0.1,0-0.2-0.1-0.3c-0.1-0.3-0.2-0.8,0-1.3c0.4-0.8,1.2-1,2-1.2
				c0.6-0.2,1.3-0.3,1.9-0.8c0.6-0.5,1-1.2,1.1-2.2c0,0,0,0,0-0.1c-1-0.2-2.1-0.3-3.2-0.3c-10.4,0-18.9,8.5-18.9,18.9
				c0,9.1,6.5,16.7,15.1,18.5C57.9,137.2,58.2,136.5,58.7,136.1 M55.9,131.9c-0.4,0.2-0.8,0.1-1,0.1c-0.2,0-0.2-0.1-0.3,0
				c-0.2,0.1-0.3,0.5-0.4,0.8c-0.1,0.4-0.3,1-0.9,1.1c0,0-0.1,0-0.1,0c-0.6,0-0.9-0.7-1.1-1.2c-0.2-0.6-0.5-1.4-1.1-2
				c-0.4-0.4-0.8-0.5-1.3-0.7c-0.6-0.2-1.2-0.4-1.8-1.2c-0.7-1-0.7-2.2-0.7-2.8c0-0.9,0.2-1.4,0.4-1.9c0.2-0.5,0.3-0.9,0.2-1.6v0
				c0-0.1,0-0.2-0.1-0.4c-0.1-0.4-0.2-1,0.3-1.4c0.4-0.4,1-0.3,1.3-0.2c0.3,0.1,0.5,0.1,0.7,0c0.1,0,0.1-0.1,0.3-0.3
				c0.1-0.2,0.4-0.5,0.8-0.8c0.3-0.2,1.7-1.3,2.6-0.6c1.3,0.9-0.2,4.1-0.4,4.4c-0.3,0.7-0.6,1.1-0.9,1.4c-0.1,0.1-0.2,0.3-0.3,0.4
				c0.1,0,0.4,0.1,0.5,0.1c0.6,0.1,1.4,0.2,2.2,0.8c1.4,1,1.9,2.9,1.9,4.2C56.6,131.1,56.3,131.6,55.9,131.9"/>
		</g>
		<path class="st3" d="M76.5,131.2c-2.9-3.1-3.8-2.9-4-2.8c-0.2,0.1-0.3,0.3-0.4,0.7c-0.2,0.5-0.5,1.3-1.4,1.7
			c-0.8,0.4-1.5,0.3-2.2,0.1c-0.5-0.1-1-0.2-1.5-0.1c-0.9,0.3-1.5,1.2-2,2.1c-0.6,1-0.8,1.8-0.9,2.4c-0.2,0.8-0.3,1.5-1.1,2
			c-0.8,0.5-1.7,0.2-2.4,0c-0.6-0.2-0.9-0.2-1.1-0.1c-0.2,0.2-0.3,0.6-0.4,1.2c0.8,0.1,1.7,0.2,2.5,0.2
			C67.8,138.6,73.2,135.7,76.5,131.2C76.6,131.2,76.6,131.2,76.5,131.2"/>
	</g>
</g>
</svg>
